<?xml version="1.0" standalone="no"?>
<!DOCTYPE svg PUBLIC "-//W3C//DTD SVG 20010904//EN"
 "http://www.w3.org/TR/2001/REC-SVG-20010904/DTD/svg10.dtd">
<svg version="1.0" xmlns="http://www.w3.org/2000/svg"
 width="128.000000pt" height="128.000000pt" viewBox="0 0 128.000000 128.000000"
 preserveAspectRatio="xMidYMid meet">
<metadata>
Created by potrace 1.11, written by Peter Selinger 2001-2013
</metadata>
<g transform="translate(0.000000,128.000000) scale(0.100000,-0.100000)"
fill="#000000" stroke="none">
<path d="M1103 1267 c-5 -7 -15 -31 -23 -54 -7 -23 -22 -51 -34 -62 -26 -24
-91 -53 -100 -44 -3 4 -3 -7 0 -24 9 -46 -12 -75 -154 -217 l-130 -129 -48 12
c-77 19 -105 51 -82 94 16 32 43 48 122 79 l71 27 -45 1 c-25 1 -78 2 -118 3
l-73 2 -9 -35 c-6 -19 -21 -82 -35 -139 -14 -58 -27 -107 -30 -109 -3 -3 -37
3 -77 12 -131 30 -122 33 -180 -69 -27 -49 -70 -128 -95 -175 -25 -47 -51 -91
-57 -99 -6 -8 42 13 107 48 65 34 124 60 130 58 6 -2 12 -20 13 -40 1 -32 10
-46 64 -98 57 -56 66 -61 96 -56 19 3 36 2 39 -2 4 -8 -66 -153 -102 -209 -8
-13 -12 -26 -10 -29 4 -3 346 177 366 193 2 2 -6 51 -19 109 -12 59 -20 108
-18 109 1 1 48 12 103 25 55 12 117 26 138 32 l37 10 -1 122 0 122 -19 -51
c-31 -89 -52 -126 -83 -144 -53 -32 -92 3 -103 94 l-5 41 140 139 c132 133
141 140 179 140 36 0 41 3 46 27 11 55 78 111 136 113 23 1 38 28 35 64 -2 31
-15 59 -15 34 0 -7 -9 -21 -19 -31 -23 -23 -57 -18 -64 10 -3 11 -11 18 -18
17 -22 -5 -22 39 0 61 12 12 21 23 21 24 0 10 -69 5 -77 -6z"/>
</g>
</svg>
